<svg width="16.000000" height="16.000000" viewBox="0 0 16 16" fill="none" xmlns="http://www.w3.org/2000/svg" xmlns:xlink="http://www.w3.org/1999/xlink">
  <metadata>
    <agcit_code>agcit_huawei_comprehensive_mall</agcit_code>
  </metadata>
	<desc>
			Created with Pixso.
	</desc>
	<defs>
		<clipPath id="clip23_2428">
			<rect width="16.000000" height="16.000000" fill="white" fill-opacity="0"/>
		</clipPath>
	</defs>
	<g clip-path="url(#clip23_2428)">
		<g opacity="0.000000">
			<rect width="16.000000" height="16.000000" fill="#000000" fill-opacity="1.000000"/>
		</g>
		<path d="M4.65 5.98L5.76 5.98L5.76 4.88L4.65 4.88L4.65 5.98ZM4.65 8.56L5.76 8.56L5.76 7.44L4.65 7.44L4.65 8.56ZM4.65 11.12L5.76 11.12L5.76 10.01L4.65 10.01L4.65 11.12ZM10.22 5.98L11.32 5.98L11.32 4.88L10.22 4.88L10.22 5.98ZM10.22 8.56L11.32 8.56L11.32 7.44L10.22 7.44L10.22 8.56ZM10.22 11.12L11.32 11.12L11.32 10.01L10.22 10.01L10.22 11.12Z" fill="#000000" fill-opacity="1.000000" fill-rule="nonzero"/>
		<path d="M13 13.84C13.39 13.84 13.75 13.74 14.08 13.54C14.4 13.34 14.67 13.08 14.87 12.75C15.06 12.42 15.16 12.05 15.16 11.66L15.16 9.72C15.16 9.64 15.14 9.56 15.1 9.48C15.06 9.41 14.99 9.34 14.91 9.29C14.67 9.16 14.49 8.98 14.36 8.75C14.22 8.51 14.16 8.26 14.16 8C14.16 7.73 14.22 7.48 14.36 7.24C14.49 7.01 14.67 6.83 14.91 6.7C14.98 6.66 15.04 6.6 15.09 6.52C15.14 6.44 15.16 6.35 15.16 6.27L15.16 4.33C15.16 3.94 15.06 3.58 14.87 3.24C14.67 2.91 14.4 2.65 14.08 2.45C13.75 2.25 13.39 2.16 13 2.16L3 2.16C2.61 2.16 2.24 2.25 1.91 2.45C1.59 2.65 1.32 2.91 1.12 3.24C0.93 3.58 0.83 3.94 0.83 4.33L0.83 6.27C0.83 6.35 0.85 6.44 0.9 6.52C0.95 6.6 1.01 6.66 1.08 6.7C1.31 6.83 1.49 7.01 1.63 7.24C1.77 7.48 1.83 7.73 1.83 8C1.83 8.26 1.77 8.51 1.63 8.75C1.49 8.98 1.31 9.16 1.08 9.29C1 9.34 0.93 9.41 0.89 9.48C0.85 9.56 0.83 9.64 0.83 9.72L0.83 11.66C0.83 12.05 0.93 12.42 1.12 12.75C1.32 13.08 1.59 13.34 1.91 13.54C2.24 13.74 2.61 13.84 3 13.84L13 13.84ZM1.83 10C2.15 9.75 2.39 9.45 2.56 9.1C2.74 8.75 2.83 8.38 2.83 8C2.83 7.6 2.74 7.23 2.56 6.88C2.39 6.52 2.15 6.23 1.83 6L1.83 4.33C1.83 4 1.95 3.72 2.17 3.5C2.39 3.28 2.67 3.16 3 3.16L13 3.16C13.32 3.16 13.6 3.28 13.82 3.5C14.04 3.72 14.16 4 14.16 4.33L14.16 6C13.84 6.23 13.6 6.52 13.43 6.88C13.25 7.23 13.16 7.6 13.16 8C13.16 8.39 13.25 8.76 13.43 9.12C13.6 9.47 13.84 9.76 14.16 10L14.16 11.66C14.16 11.98 14.04 12.26 13.81 12.48C13.58 12.71 13.31 12.83 13 12.83L3 12.83C2.67 12.83 2.39 12.71 2.17 12.48C1.95 12.26 1.83 11.98 1.83 11.66L1.83 10Z" fill="#000000" fill-opacity="1.000000" fill-rule="nonzero"/>
	</g>
</svg>
