<svg xmlns="http://www.w3.org/2000/svg" viewBox="0 0 1280 720" width="1280" height="720">
  <defs>
    <marker id="arrowPrimary" markerWidth="10" markerHeight="10" refX="9" refY="5" orient="auto">
      <path d="M0,0 L10,5 L0,10 Z" fill="#C7000A" />
    </marker>
  </defs>

  <g id="background">
    <rect x="0" y="0" width="1280" height="720" fill="#FFFFFF" />
    <rect x="0" y="0" width="1280" height="116" fill="#F7F7F7" />
    <rect x="0" y="0" width="9" height="720" fill="#C7000A" />
  </g>

  <g id="header">
    <path fill="#C7000A" d="M58,42 H58 A4,4 0 0 1 62,46 V82 A4,4 0 0 1 58,86 H58 A4,4 0 0 1 54,82 V46 A4,4 0 0 1 58,42 Z" />
    <text x="78" y="70" font-family="Microsoft YaHei, PingFang SC, Arial, sans-serif" font-size="38" font-weight="800" fill="#1D1D1A">Grid case 把多设备适配压缩成一道可验证 SWE 题</text>
    <text x="80" y="99" font-family="Microsoft YaHei, PingFang SC, Arial, sans-serif" font-size="15" fill="#666666">ResponsiveGridLayout / CaseResponsiveRepeatGridLayout · derive_base · HarmonyOS 一多 Grid 重复布局</text>
    <path fill="#FFFFFF" stroke="#EBEBEB" stroke-width="1.5" d="M1026,44 H1206 A8,8 0 0 1 1214,52 V74 A8,8 0 0 1 1206,82 H1026 A8,8 0 0 1 1018,74 V52 A8,8 0 0 1 1026,44 Z" />
    
  <g transform="translate(1034.0, 53.0) scale(0.8333333333333334)" fill="none" stroke="#C7000A" stroke-width="2">
    <path d="M4 5a1 1 0 0 1 1 -1h4a1 1 0 0 1 1 1v4a1 1 0 0 1 -1 1h-4a1 1 0 0 1 -1 -1l0 -4" />
    <path d="M14 5a1 1 0 0 1 1 -1h4a1 1 0 0 1 1 1v4a1 1 0 0 1 -1 1h-4a1 1 0 0 1 -1 -1l0 -4" />
    <path d="M4 15a1 1 0 0 1 1 -1h4a1 1 0 0 1 1 1v4a1 1 0 0 1 -1 1h-4a1 1 0 0 1 -1 -1l0 -4" />
    <path d="M14 15a1 1 0 0 1 1 -1h4a1 1 0 0 1 1 1v4a1 1 0 0 1 -1 1h-4a1 1 0 0 1 -1 -1l0 -4" />
  </g>
    <text x="1062" y="68" font-family="Consolas, Courier New, monospace" font-size="15" font-weight="700" fill="#232323">responsive-grid-layout</text>
  </g>

  <g id="asset-stack">
    <text x="60" y="156" font-family="Microsoft YaHei, PingFang SC, Arial, sans-serif" font-size="24" font-weight="800" fill="#232323">题目资产</text>
    <text x="60" y="182" font-family="Microsoft YaHei, PingFang SC, Arial, sans-serif" font-size="15" fill="#666666">目录内已经包含从基础工程到测试定义的完整材料</text>

    <path fill="#FFFFFF" stroke="#EBEBEB" stroke-width="1.5" d="M68,204 H430 A8,8 0 0 1 438,212 V516 A8,8 0 0 1 430,524 H68 A8,8 0 0 1 60,516 V212 A8,8 0 0 1 68,204 Z" />
    <path fill="#C7000A" d="M68,204 H430 A8,8 0 0 1 438,212 V240 A8,8 0 0 1 430,248 H68 A8,8 0 0 1 60,240 V212 A8,8 0 0 1 68,204 Z" />
    <text x="82" y="233" font-family="Consolas, Courier New, monospace" font-size="16" font-weight="700" fill="#FFFFFF">CaseResponsiveRepeatGridLayout/</text>

    <g id="asset-row-task">
      
  <g transform="translate(84.0, 270.0) scale(0.9166666666666666)" fill="none" stroke="#C7000A" stroke-width="2">
    <path d="M14 3v4a1 1 0 0 0 1 1h4" />
    <path d="M17 21h-10a2 2 0 0 1 -2 -2v-14a2 2 0 0 1 2 -2h7l5 5v11a2 2 0 0 1 -2 2" />
    <path d="M10 13l-1 2l1 2" />
    <path d="M14 13l1 2l-1 2" />
  </g>
      <text x="116" y="287" font-family="Consolas, Courier New, monospace" font-size="16" font-weight="700" fill="#1D1D1A">task/</text>
      <text x="190" y="287" font-family="Microsoft YaHei, PingFang SC, Arial, sans-serif" font-size="15" fill="#666666">待适配的基础工程</text>
      <line x1="82" y1="306" x2="416" y2="306" stroke="#EBEBEB" stroke-width="1" />
    </g>
    <g id="asset-row-readme">
      
  <g transform="translate(84.0, 326.0) scale(0.9166666666666666)" fill="none" stroke="#C7000A" stroke-width="2">
    <path d="M14 3v4a1 1 0 0 0 1 1h4" />
    <path d="M17 21h-10a2 2 0 0 1 -2 -2v-14a2 2 0 0 1 2 -2h7l5 5v11a2 2 0 0 1 -2 2" />
    <path d="M10 13l-1 2l1 2" />
    <path d="M14 13l1 2l-1 2" />
  </g>
      <text x="116" y="343" font-family="Consolas, Courier New, monospace" font-size="16" font-weight="700" fill="#1D1D1A">README.md</text>
      <text x="230" y="343" font-family="Microsoft YaHei, PingFang SC, Arial, sans-serif" font-size="15" fill="#666666">题目 prompt</text>
      <line x1="82" y1="362" x2="416" y2="362" stroke="#EBEBEB" stroke-width="1" />
    </g>
    <g id="asset-row-golden">
      
  <g transform="translate(84.0, 382.0) scale(0.9166666666666666)" fill="none" stroke="#C7000A" stroke-width="2">
    <path d="M14 3v4a1 1 0 0 0 1 1h4" />
    <path d="M17 21h-10a2 2 0 0 1 -2 -2v-14a2 2 0 0 1 2 -2h7l5 5v11a2 2 0 0 1 -2 2" />
    <path d="M10 13l-1 2l1 2" />
    <path d="M14 13l1 2l-1 2" />
  </g>
      <text x="116" y="399" font-family="Consolas, Courier New, monospace" font-size="16" font-weight="700" fill="#1D1D1A">golden_patch.patch</text>
      <text x="286" y="399" font-family="Microsoft YaHei, PingFang SC, Arial, sans-serif" font-size="15" fill="#666666">参考实现</text>
      <line x1="82" y1="418" x2="416" y2="418" stroke="#EBEBEB" stroke-width="1" />
    </g>
    <g id="asset-row-test">
      
  <g transform="translate(84.0, 438.0) scale(0.9166666666666666)" fill="none" stroke="#C7000A" stroke-width="2">
    <path d="M14 3v4a1 1 0 0 0 1 1h4" />
    <path d="M17 21h-10a2 2 0 0 1 -2 -2v-14a2 2 0 0 1 2 -2h7l5 5v11a2 2 0 0 1 -2 2" />
    <path d="M10 13l-1 2l1 2" />
    <path d="M14 13l1 2l-1 2" />
  </g>
      <text x="116" y="455" font-family="Consolas, Courier New, monospace" font-size="16" font-weight="700" fill="#1D1D1A">test_patch.patch</text>
      <text x="262" y="455" font-family="Microsoft YaHei, PingFang SC, Arial, sans-serif" font-size="15" fill="#666666">评测测试</text>
      <line x1="82" y1="474" x2="416" y2="474" stroke="#EBEBEB" stroke-width="1" />
    </g>
    <g id="asset-row-meta">
      
  <g transform="translate(84.0, 494.0) scale(0.9166666666666666)" fill="none" stroke="#C7000A" stroke-width="2">
    <path d="M14 3v4a1 1 0 0 0 1 1h4" />
    <path d="M17 21h-10a2 2 0 0 1 -2 -2v-14a2 2 0 0 1 2 -2h7l5 5v11a2 2 0 0 1 -2 2" />
    <path d="M10 13l-1 2l1 2" />
    <path d="M14 13l1 2l-1 2" />
  </g>
      <text x="116" y="511" font-family="Consolas, Courier New, monospace" font-size="16" font-weight="700" fill="#1D1D1A">metadata.json</text>
      <text x="246" y="511" font-family="Microsoft YaHei, PingFang SC, Arial, sans-serif" font-size="15" fill="#666666">测试分组定义</text>
    </g>
  </g>

  <g id="target-matrix">
    <text x="484" y="156" font-family="Microsoft YaHei, PingFang SC, Arial, sans-serif" font-size="24" font-weight="800" fill="#232323">断点目标矩阵</text>
    <text x="484" y="182" font-family="Microsoft YaHei, PingFang SC, Arial, sans-serif" font-size="15" fill="#666666">Agent 要把固定 2 列 Grid 改成断点驱动的重复布局</text>

    <path fill="#FFFFFF" stroke="#EBEBEB" stroke-width="1.5" d="M492,204 H1206 A8,8 0 0 1 1214,212 V516 A8,8 0 0 1 1206,524 H492 A8,8 0 0 1 484,516 V212 A8,8 0 0 1 492,204 Z" />
    <path fill="#232323" d="M492,204 H1206 A8,8 0 0 1 1214,212 V246 A8,8 0 0 1 1206,254 H492 A8,8 0 0 1 484,246 V212 A8,8 0 0 1 492,204 Z" />
    <text x="538" y="235" font-family="Microsoft YaHei, PingFang SC, Arial, sans-serif" font-size="15" font-weight="800" fill="#FFFFFF">断点</text>
    <text x="714" y="235" font-family="Microsoft YaHei, PingFang SC, Arial, sans-serif" font-size="15" font-weight="800" fill="#FFFFFF">Grid 列数</text>
    <text x="898" y="235" font-family="Microsoft YaHei, PingFang SC, Arial, sans-serif" font-size="15" font-weight="800" fill="#FFFFFF">间距</text>
    <text x="1060" y="235" font-family="Microsoft YaHei, PingFang SC, Arial, sans-serif" font-size="15" font-weight="800" fill="#FFFFFF">图片尺寸</text>

    <line x1="650" y1="254" x2="650" y2="524" stroke="#EBEBEB" stroke-width="1.5" />
    <line x1="840" y1="254" x2="840" y2="524" stroke="#EBEBEB" stroke-width="1.5" />
    <line x1="1008" y1="254" x2="1008" y2="524" stroke="#EBEBEB" stroke-width="1.5" />

    <rect x="484" y="254" width="730" height="90" fill="#FFFFFF" />
    <path fill="#F7F7F7" stroke="#B5B5B5" stroke-width="1" d="M522,279 H554 A18,18 0 0 1 572,297 V297 A18,18 0 0 1 554,315 H522 A18,18 0 0 1 504,297 V297 A18,18 0 0 1 522,279 Z" />
    <text x="538" y="303" text-anchor="middle" font-family="Consolas, Courier New, monospace" font-size="17" font-weight="800" fill="#232323">SM</text>
    <text x="746" y="306" text-anchor="middle" font-family="Microsoft YaHei, PingFang SC, Arial, sans-serif" font-size="28" font-weight="800" fill="#1D1D1A">2 列</text>
    <text x="924" y="306" text-anchor="middle" font-family="Consolas, Courier New, monospace" font-size="24" font-weight="800" fill="#1D1D1A">8vp</text>
    <text x="1106" y="306" text-anchor="middle" font-family="Consolas, Courier New, monospace" font-size="24" font-weight="800" fill="#1D1D1A">58vp</text>

    <line x1="484" y1="344" x2="1214" y2="344" stroke="#EBEBEB" stroke-width="1.5" />
    <rect x="484" y="344" width="730" height="90" fill="#FFF7F4" />
    <path fill="#F26B43" d="M522,369 H554 A18,18 0 0 1 572,387 V387 A18,18 0 0 1 554,405 H522 A18,18 0 0 1 504,387 V387 A18,18 0 0 1 522,369 Z" />
    <text x="538" y="393" text-anchor="middle" font-family="Consolas, Courier New, monospace" font-size="17" font-weight="800" fill="#FFFFFF">MD</text>
    <text x="746" y="396" text-anchor="middle" font-family="Microsoft YaHei, PingFang SC, Arial, sans-serif" font-size="28" font-weight="800" fill="#C7000A">3 列</text>
    <text x="924" y="396" text-anchor="middle" font-family="Consolas, Courier New, monospace" font-size="24" font-weight="800" fill="#C7000A">12vp</text>
    <text x="1106" y="396" text-anchor="middle" font-family="Consolas, Courier New, monospace" font-size="24" font-weight="800" fill="#C7000A">68vp</text>

    <line x1="484" y1="434" x2="1214" y2="434" stroke="#EBEBEB" stroke-width="1.5" />
    <rect x="484" y="434" width="730" height="90" fill="#FFF4F5" />
    <path fill="#E9002F" d="M522,459 H554 A18,18 0 0 1 572,477 V477 A18,18 0 0 1 554,495 H522 A18,18 0 0 1 504,477 V477 A18,18 0 0 1 522,459 Z" />
    <text x="538" y="483" text-anchor="middle" font-family="Consolas, Courier New, monospace" font-size="17" font-weight="800" fill="#FFFFFF">LG</text>
    <text x="746" y="486" text-anchor="middle" font-family="Microsoft YaHei, PingFang SC, Arial, sans-serif" font-size="28" font-weight="800" fill="#E9002F">5 列</text>
    <text x="924" y="486" text-anchor="middle" font-family="Consolas, Courier New, monospace" font-size="24" font-weight="800" fill="#E9002F">16vp</text>
    <text x="1106" y="486" text-anchor="middle" font-family="Consolas, Courier New, monospace" font-size="24" font-weight="800" fill="#E9002F">76vp</text>
  </g>

  <g id="test-coverage">
    <text x="60" y="568" font-family="Microsoft YaHei, PingFang SC, Arial, sans-serif" font-size="22" font-weight="800" fill="#232323">测试把“修复点”和“回归保护”分开定义</text>
    <path fill="#FFF4F5" stroke="#E9002F" stroke-width="1.5" d="M68,590 H607 A8,8 0 0 1 615,598 V652 A8,8 0 0 1 607,660 H68 A8,8 0 0 1 60,652 V598 A8,8 0 0 1 68,590 Z" />
    
  <g transform="translate(84.0, 611.0) scale(1.0416666666666667)" fill="none" stroke="#E9002F" stroke-width="2">
    <path d="M12 9v4" />
    <path d="M10.363 3.591l-8.106 13.534a1.914 1.914 0 0 0 1.636 2.871h16.214a1.914 1.914 0 0 0 1.636 -2.87l-8.106 -13.536a1.914 1.914 0 0 0 -3.274 0" />
    <path d="M12 16h.01" />
  </g>
    <text x="122" y="620" font-family="Consolas, Courier New, monospace" font-size="17" font-weight="800" fill="#E9002F">fail_to_pass</text>
    <text x="122" y="645" font-family="Microsoft YaHei, PingFang SC, Arial, sans-serif" font-size="15" fill="#1D1D1A">MD/LG 下列数、间距、图片尺寸必须从失败变为通过</text>

    <path fill="#F4FBF5" stroke="#2E7D32" stroke-width="1.5" d="M658,590 H1206 A8,8 0 0 1 1214,598 V652 A8,8 0 0 1 1206,660 H658 A8,8 0 0 1 650,652 V598 A8,8 0 0 1 658,590 Z" />
    
  <g transform="translate(674.0, 611.0) scale(1.0416666666666667)" fill="none" stroke="#2E7D32" stroke-width="2">
    <path d="M5 12l5 5l10 -10" />
  </g>
    <text x="712" y="620" font-family="Consolas, Courier New, monospace" font-size="17" font-weight="800" fill="#2E7D32">pass_to_pass</text>
    <text x="712" y="645" font-family="Microsoft YaHei, PingFang SC, Arial, sans-serif" font-size="15" fill="#1D1D1A">页面启动、内容展示、SM 原行为、无横向溢出必须保持成功</text>
  </g>

  <g id="footer">
    <text x="60" y="694" font-family="Consolas, Courier New, monospace" font-size="13" fill="#898989">Source: README.md / metadata.json / golden_patch.patch / test_patch.patch</text>
    <text x="1214" y="694" text-anchor="end" font-family="Consolas, Courier New, monospace" font-size="13" fill="#898989">01 / 02</text>
  </g>
</svg>